<?xml version="1.0" standalone="no"?>
<!DOCTYPE svg PUBLIC "-//W3C//DTD SVG 20010904//EN"
 "http://www.w3.org/TR/2001/REC-SVG-20010904/DTD/svg10.dtd">
<svg version="1.0" xmlns="http://www.w3.org/2000/svg"
 width="586.000000pt" height="529.000000pt" viewBox="0 0 586.000000 529.000000"
 preserveAspectRatio="xMidYMid meet">

<g transform="translate(0.000000,529.000000) scale(0.100000,-0.100000)"
fill="#000000" stroke="none">
<path d="M158 5255 c-2 -20 0 -35 7 -35 5 0 10 16 11 35 1 45 -13 45 -18 0z"/>
<path d="M228 5255 c-2 -22 0 -34 6 -32 14 4 21 67 8 67 -6 0 -12 -16 -14 -35z"/>
<path d="M280 5260 c0 -22 5 -30 18 -30 13 0 14 2 3 9 -8 5 -12 18 -8 30 3 12
1 21 -4 21 -5 0 -9 -13 -9 -30z"/>
<path d="M338 5270 c-7 -24 -3 -38 8 -28 3 4 4 17 2 30 l-3 23 -7 -25z"/>
<path d="M388 5265 c-3 -14 -1 -25 3 -25 5 0 9 11 9 25 0 14 -2 25 -4 25 -2 0
-6 -11 -8 -25z"/>
<path d="M450 5276 c0 -8 4 -17 9 -20 5 -4 7 3 4 14 -6 23 -13 26 -13 6z"/>
<path d="M506 5275 c-3 -8 -1 -15 4 -15 6 0 10 7 10 15 0 8 -2 15 -4 15 -2 0
-6 -7 -10 -15z"/>
<path d="M645 5280 c-3 -5 1 -10 9 -10 9 0 16 5 16 10 0 6 -4 10 -9 10 -6 0
-13 -4 -16 -10z"/>
<path d="M1826 5252 c-5 -29 -4 -48 3 -55 15 -15 17 -8 11 48 l-6 50 -8 -43z"/>
<path d="M1964 5271 c0 -11 4 -17 8 -15 4 3 8 12 8 20 0 8 -4 14 -8 14 -4 0
-8 -9 -8 -19z"/>
<path d="M2011 5253 c1 -34 2 -35 9 -13 11 36 11 50 0 50 -5 0 -10 -17 -9 -37z"/>
<path d="M2080 5281 c0 -6 7 -14 15 -17 23 -9 19 -37 -5 -31 -11 3 -18 1 -14
-4 8 -13 30 -11 42 4 12 14 7 24 -20 46 -12 9 -18 10 -18 2z"/>
<path d="M2198 5261 c-3 -18 0 -27 7 -25 13 5 19 54 6 54 -5 0 -11 -13 -13
-29z"/>
<path d="M2380 5275 c0 -8 -12 -21 -27 -29 -17 -9 -22 -15 -12 -16 15 0 37 20
53 48 4 6 2 12 -3 12 -6 0 -11 -7 -11 -15z"/>
<path d="M2510 5279 c0 -5 5 -7 10 -4 6 3 10 8 10 11 0 2 -4 4 -10 4 -5 0 -10
-5 -10 -11z"/>
<path d="M5338 5250 c5 -52 18 -52 17 0 0 22 -5 40 -10 40 -6 0 -9 -17 -7 -40z"/>
<path d="M5400 5260 c0 -16 5 -30 10 -30 6 0 10 14 10 30 0 17 -4 30 -10 30
-5 0 -10 -13 -10 -30z"/>
<path d="M5460 5259 c0 -16 4 -28 9 -25 8 5 3 56 -5 56 -2 0 -4 -14 -4 -31z"/>
<path d="M5500 5270 c0 -11 2 -20 4 -20 2 0 13 -3 23 -6 17 -6 17 -6 -1 8 -10
8 -16 20 -12 26 4 7 2 12 -3 12 -6 0 -11 -9 -11 -20z"/>
<path d="M5620 5280 c0 -5 5 -10 11 -10 5 0 7 5 4 10 -3 6 -8 10 -11 10 -2 0
-4 -4 -4 -10z"/>
<path d="M5718 5283 c7 -3 16 -2 19 1 4 3 -2 6 -13 5 -11 0 -14 -3 -6 -6z"/>
<path d="M1869 5272 c9 -6 12 -21 9 -42 -5 -30 -4 -31 9 -14 19 26 12 58 -12
62 -15 2 -17 1 -6 -6z"/>
<path d="M1921 5258 c-10 -28 3 -58 26 -58 14 0 14 2 -3 15 -16 13 -17 16 -4
25 12 7 12 10 1 10 -7 0 -11 6 -7 15 3 8 3 15 0 15 -2 0 -8 -10 -13 -22z"/>
<path d="M2425 5270 c-3 -5 -1 -10 4 -10 6 0 11 5 11 10 0 6 -2 10 -4 10 -3 0
-8 -4 -11 -10z"/>
<path d="M5257 5259 c4 -13 9 -17 15 -11 11 11 3 32 -12 32 -4 0 -6 -9 -3 -21z"/>
<path d="M1724 5254 c3 -8 6 -27 6 -41 0 -33 5 -27 13 14 5 23 2 33 -10 37
-11 5 -14 2 -9 -10z"/>
<path d="M1767 5262 c6 -4 13 -23 16 -42 4 -33 4 -33 5 8 2 34 -1 42 -15 42
-12 0 -14 -3 -6 -8z"/>
<path d="M1253 5197 c-2 -60 -2 -61 10 -27 7 19 11 47 9 63 -7 47 -17 29 -19
-36z"/>
<path d="M1674 5220 c-1 -22 2 -40 7 -40 5 0 9 14 9 30 0 17 0 33 1 37 0 4 -3
9 -8 10 -5 2 -9 -15 -9 -37z"/>
<path d="M5147 5253 c-14 -13 -7 -32 14 -38 13 -4 18 -12 15 -21 -3 -9 -1 -12
4 -9 17 11 11 33 -11 40 -12 4 -18 12 -15 21 6 15 3 18 -7 7z"/>
<path d="M1572 5210 c-2 -52 12 -52 16 0 1 22 -1 40 -6 40 -5 0 -9 -18 -10
-40z"/>
<path d="M1627 5216 c-5 -21 -6 -41 -3 -44 12 -11 17 7 14 44 l-3 39 -8 -39z"/>
<path d="M5098 5216 c-7 -39 -4 -55 8 -44 3 3 4 23 2 44 l-3 39 -7 -39z"/>
<path d="M1471 5198 l0 -43 13 35 c13 36 12 50 -5 50 -5 0 -9 -19 -8 -42z"/>
<path d="M1517 5234 c7 -3 9 -18 6 -40 -4 -22 -2 -34 6 -34 6 0 11 17 11 40 0
32 -4 40 -17 39 -10 0 -13 -3 -6 -5z"/>
<path d="M5038 5205 c6 -49 18 -52 20 -5 1 27 -2 40 -11 40 -9 0 -12 -11 -9
-35z"/>
<path d="M5210 5226 c0 -18 26 -39 42 -33 8 4 7 6 -4 6 -21 1 -24 27 -5 34 6
3 2 6 -10 6 -13 1 -23 -5 -23 -13z"/>
<path d="M1197 5223 c-4 -3 -7 -27 -6 -52 1 -42 2 -43 8 -15 4 17 10 35 14 40
7 12 -7 37 -16 27z"/>
<path d="M1362 5218 c-29 -37 -15 -89 20 -75 9 4 7 6 -4 6 -12 1 -16 10 -16
32 1 33 25 50 39 28 7 -11 9 -11 9 4 0 20 -32 23 -48 5z"/>
<path d="M4530 5210 c-96 -11 -332 -35 -525 -55 -192 -20 -420 -45 -505 -56
-85 -11 -189 -24 -230 -29 -41 -5 -183 -22 -315 -39 -600 -75 -1157 -142
-1340 -161 -110 -11 -402 -43 -650 -71 -247 -28 -520 -57 -605 -66 -85 -9
-158 -19 -162 -22 -4 -4 -3 -45 2 -91 26 -224 85 -1074 115 -1640 17 -322 49
-861 65 -1090 5 -80 17 -260 25 -400 15 -245 22 -345 45 -695 16 -242 29 -447
37 -572 5 -94 9 -113 22 -113 9 0 50 5 91 10 69 9 588 72 875 105 66 8 156 19
200 24 119 15 1120 130 1270 146 242 26 599 66 770 85 94 11 274 31 400 45
316 34 924 103 1015 115 41 5 179 21 305 35 127 15 233 29 237 33 6 7 -50 282
-158 772 -25 113 -67 311 -94 440 -27 129 -60 287 -74 350 -13 63 -50 237 -81
385 -30 149 -62 297 -70 330 -13 57 -127 620 -286 1420 -39 198 -90 464 -113
590 -41 223 -43 230 -67 232 -13 1 -103 -7 -199 -17z m205 -37 c10 -47 13 -63
40 -218 14 -82 48 -262 75 -398 28 -137 48 -253 44 -258 -3 -5 -1 -9 4 -9 5 0
12 -17 16 -37 3 -21 22 -121 41 -222 19 -102 32 -188 30 -191 -3 -4 -26 -10
-52 -14 -112 -15 -757 -95 -853 -106 -58 -6 -132 -15 -165 -20 -136 -20 -465
-53 -471 -48 -4 5 -52 302 -68 423 -3 22 -18 132 -35 245 -75 517 -99 704 -91
713 12 14 409 62 1050 128 58 6 161 17 230 24 195 20 199 20 205 -12z m-1515
-157 c0 -8 11 -95 24 -193 14 -98 27 -200 30 -228 6 -64 65 -480 106 -744 17
-112 29 -205 27 -208 -3 -2 -106 -15 -229 -29 -122 -13 -239 -26 -258 -28 -19
-3 -134 -16 -255 -30 -121 -15 -240 -29 -265 -32 -130 -16 -478 -54 -495 -54
-20 0 -22 11 -40 183 -10 100 -20 202 -21 227 -1 25 -4 52 -7 60 -3 8 -13 85
-22 170 -9 85 -21 191 -26 235 -34 307 -49 454 -49 482 0 31 0 31 63 37 95 10
213 25 927 112 69 8 184 23 255 33 169 24 235 26 235 7z m-1490 -368 c12 -112
24 -219 26 -238 2 -19 12 -116 23 -215 11 -99 23 -207 26 -240 3 -33 16 -154
29 -270 13 -115 21 -213 17 -217 -6 -7 -813 -100 -981 -113 -25 -2 -154 -16
-288 -31 -133 -15 -245 -25 -248 -21 -3 3 -19 194 -35 424 -15 230 -29 433
-31 451 -2 21 3 36 12 42 13 8 13 10 -2 10 -13 0 -17 16 -23 93 -4 50 -13 151
-19 222 -7 72 -9 134 -6 138 5 6 871 108 980 116 8 0 107 12 220 25 113 13
221 24 241 25 l36 1 23 -202z m3334 -1170 c37 -183 78 -383 91 -445 31 -144
113 -541 127 -615 7 -32 10 -60 7 -62 -2 -2 -114 -16 -249 -30 -135 -14 -281
-30 -325 -36 -44 -5 -170 -19 -280 -30 -110 -11 -299 -32 -420 -46 -121 -14
-247 -27 -280 -31 l-60 -5 -23 143 c-57 355 -136 852 -168 1044 -19 116 -34
220 -34 233 0 26 1 26 190 47 80 8 181 20 225 25 44 6 215 26 380 45 165 20
395 48 510 64 116 16 217 29 226 30 13 1 28 -58 83 -331z m-1617 -53 c17 -105
34 -210 36 -235 3 -25 22 -146 42 -270 19 -124 44 -279 55 -345 10 -66 28
-182 40 -258 12 -76 20 -140 19 -142 -5 -4 -465 -55 -500 -55 -24 0 -27 5 -36
58 l-10 57 1 -60 1 -59 -55 -8 c-244 -31 -455 -49 -458 -39 -3 9 -7 8 -16 -2
-12 -15 -503 -74 -515 -62 -11 12 -58 470 -49 482 5 6 5 13 -1 15 -5 1 -17 71
-25 153 -9 83 -21 186 -25 230 -5 44 -10 87 -10 95 0 8 -12 114 -25 234 -14
121 -24 221 -21 224 4 4 332 44 455 56 30 2 149 16 265 31 115 14 230 28 255
30 71 7 399 46 460 55 90 13 82 26 117 -185z m-1583 -27 c6 -45 46 -405 46
-413 0 -3 -12 -6 -27 -6 l-28 -2 26 -4 c21 -3 28 -11 33 -36 7 -38 36 -308 41
-387 2 -30 6 -62 8 -70 3 -8 15 -109 26 -225 12 -115 23 -220 25 -233 2 -12 0
-24 -4 -27 -9 -6 -395 -53 -490 -61 -25 -1 -121 -12 -215 -24 -177 -21 -319
-37 -345 -38 -8 -1 -132 -15 -274 -31 -143 -17 -261 -29 -264 -27 -5 6 -23
268 -62 931 -10 182 -22 374 -25 427 -6 96 -6 97 17 102 21 4 353 41 458 50
25 3 133 14 240 26 107 12 222 23 255 25 33 3 60 5 60 6 0 1 436 54 477 58 13
1 18 -10 22 -41z m3492 -1328 c28 -135 50 -248 47 -252 -2 -5 -23 -9 -46 -10
l-42 -1 50 -6 49 -6 27 -130 c15 -71 38 -184 53 -250 14 -65 22 -123 18 -127
-4 -3 -23 -9 -42 -11 -29 -3 -28 -4 8 -3 33 1 43 -3 48 -18 17 -54 110 -512
105 -517 -3 -4 -114 -19 -246 -33 -132 -15 -255 -30 -272 -33 -28 -4 -34 -2
-42 18 -9 23 -10 23 -10 3 -1 -28 -1 -28 -286 -59 -224 -24 -317 -34 -620 -70
-66 -8 -142 -15 -170 -17 l-49 -3 -21 125 c-47 270 -67 409 -61 418 3 6 2 12
-2 14 -8 3 -78 413 -86 508 -3 25 -7 52 -10 60 -8 21 -77 473 -73 476 3 3 215
27 712 79 413 44 789 85 805 89 8 2 35 3 60 3 l44 -2 52 -245z m-1682 -92 c15
-90 33 -208 40 -263 8 -55 21 -143 30 -195 29 -174 66 -420 64 -427 0 -5 1
-15 5 -23 15 -39 86 -524 77 -530 -14 -9 -518 -63 -534 -57 -8 3 -18 40 -27
104 -7 54 -15 91 -16 82 -2 -9 2 -55 10 -103 10 -62 11 -89 3 -92 -6 -2 -117
-15 -246 -28 -129 -14 -253 -28 -275 -30 -22 -2 -159 -18 -305 -35 -166 -19
-266 -27 -270 -21 -3 6 -14 88 -24 182 -9 95 -21 205 -27 243 -5 39 -10 84 -9
100 0 17 -14 147 -31 290 -24 198 -28 260 -19 263 9 3 9 6 -1 13 -15 9 -73
499 -61 510 4 4 113 19 242 33 129 14 269 30 310 36 62 8 378 44 470 53 18 1
26 -4 31 -23 l7 -25 1 28 c1 22 6 27 29 28 15 0 115 11 222 23 107 13 213 24
236 25 l41 1 27 -162z m-1650 -55 c3 -21 15 -128 26 -238 22 -213 25 -242 96
-893 25 -233 44 -429 41 -435 -3 -9 -84 -22 -248 -41 -327 -38 -293 -40 -300
14 l-6 45 -1 -47 c-2 -56 31 -46 -292 -83 -124 -14 -352 -42 -508 -61 -156
-20 -288 -34 -295 -31 -17 6 -51 540 -35 546 7 2 7 6 -1 10 -7 4 -17 90 -26
222 -23 340 -23 312 5 320 l25 7 -26 1 -25 1 -17 257 c-9 142 -15 258 -14 259
2 3 166 23 387 49 101 12 136 13 139 4 2 -8 6 -8 11 1 5 9 94 23 257 41 136
16 257 28 268 28 11 0 121 14 245 29 306 40 287 40 294 -5z"/>
<path d="M4300 4690 c0 -5 5 -10 11 -10 5 0 7 5 4 10 -3 6 -8 10 -11 10 -2 0
-4 -4 -4 -10z"/>
<path d="M4547 4617 c-55 -8 -67 -13 -65 -26 3 -13 16 -16 71 -14 37 1 67 -1
67 -5 0 -4 -16 -54 -35 -111 -19 -58 -32 -107 -30 -109 3 -3 19 -1 36 4 29 8
33 15 60 109 16 55 29 115 29 133 0 30 -2 32 -32 31 -18 -1 -64 -6 -101 -12z"/>
<path d="M3503 4490 c-13 -5 -23 -18 -23 -29 0 -18 5 -19 53 -14 44 4 55 2 60
-11 10 -26 -2 -44 -34 -51 -45 -10 -34 -39 16 -45 28 -4 41 -10 43 -23 6 -31
-17 -47 -69 -47 -55 0 -68 -22 -25 -41 61 -28 166 20 166 76 0 25 -25 58 -51
67 -11 4 -11 9 4 25 42 48 5 103 -70 102 -27 0 -58 -4 -70 -9z"/>
<path d="M4380 4230 c0 -5 5 -10 11 -10 5 0 7 5 4 10 -3 6 -8 10 -11 10 -2 0
-4 -4 -4 -10z"/>
<path d="M3870 4170 c0 -5 5 -10 11 -10 5 0 7 5 4 10 -3 6 -8 10 -11 10 -2 0
-4 -4 -4 -10z"/>
<path d="M3627 4036 c-51 -19 -65 -32 -77 -76 -15 -57 4 -133 42 -165 47 -40
139 -33 175 14 19 25 15 76 -8 106 -19 24 -27 26 -68 23 -25 -3 -54 -8 -63
-12 -14 -6 -18 -3 -18 12 0 29 46 62 86 62 36 0 47 10 38 34 -8 20 -54 20
-107 2z m78 -181 c0 -36 -3 -40 -27 -43 -28 -3 -58 27 -58 59 0 21 16 28 55
26 28 -2 30 -5 30 -42z"/>
<path d="M2523 4852 c-25 -4 -133 -169 -133 -203 0 -19 5 -20 68 -17 67 3 67
3 70 -24 2 -18 9 -28 20 -28 30 0 45 16 37 39 -5 18 -2 24 14 28 31 8 29 54
-1 50 -21 -2 -23 4 -33 75 -5 42 -12 78 -15 80 -3 2 -15 2 -27 0z m-11 -163
c-10 -10 -56 -15 -60 -6 -1 4 10 29 25 54 l28 47 7 -44 c4 -24 4 -47 0 -51z"/>
<path d="M2831 4058 c-1 -16 4 -28 9 -28 12 0 12 8 0 35 -8 18 -9 17 -9 -7z"/>
<path d="M2330 3980 c0 -5 7 -7 15 -4 8 4 15 8 15 10 0 2 -7 4 -15 4 -8 0 -15
-4 -15 -10z"/>
<path d="M3033 3955 c-36 -25 -19 -43 39 -41 86 2 89 -42 8 -134 -22 -24 -40
-53 -40 -64 0 -18 5 -19 92 -12 98 6 113 12 102 40 -6 15 -15 17 -62 11 -58
-7 -62 1 -16 37 28 23 57 94 48 122 -13 43 -34 56 -93 56 -35 0 -65 -6 -78
-15z"/>
<path d="M2852 3930 c0 -14 2 -19 5 -12 2 6 2 18 0 25 -3 6 -5 1 -5 -13z"/>
<path d="M2862 3850 c0 -14 2 -19 5 -12 2 6 2 18 0 25 -3 6 -5 1 -5 -13z"/>
<path d="M2044 3846 c-52 -23 -59 -73 -17 -112 l27 -25 -22 -15 c-30 -20 -29
-68 0 -88 47 -33 176 -13 192 29 14 38 6 66 -24 83 -34 19 -36 25 -15 42 21
17 19 63 -3 83 -23 21 -94 22 -138 3z m95 -40 c19 -23 -4 -60 -32 -52 -12 3
-25 6 -28 6 -14 0 -19 33 -8 46 15 18 53 18 68 0z m16 -122 c20 -21 15 -35
-18 -54 -41 -23 -80 11 -63 56 7 19 61 18 81 -2z"/>
<path d="M2872 3780 c0 -14 2 -19 5 -12 2 6 2 18 0 25 -3 6 -5 1 -5 -13z"/>
<path d="M2882 3715 c0 -16 2 -22 5 -12 2 9 2 23 0 30 -3 6 -5 -1 -5 -18z"/>
<path d="M2892 3630 c0 -14 2 -19 5 -12 2 6 2 18 0 25 -3 6 -5 1 -5 -13z"/>
<path d="M2381 3584 c0 -11 3 -14 6 -6 3 7 2 16 -1 19 -3 4 -6 -2 -5 -13z"/>
<path d="M1487 4239 c-45 -24 -48 -56 -5 -51 30 4 33 -4 43 -125 7 -69 8 -73
31 -73 14 0 27 7 30 15 4 8 0 69 -6 135 -15 136 -18 139 -93 99z"/>
<path d="M490 4149 c-68 -19 -92 -81 -45 -117 l26 -20 -26 -26 c-32 -32 -32
-50 1 -83 23 -23 31 -25 85 -20 73 6 105 26 114 69 7 28 4 36 -25 59 l-32 27
21 21 c34 34 21 72 -30 90 -37 13 -42 13 -89 0z m71 -50 c16 -32 -11 -56 -48
-43 -33 11 -39 27 -18 48 23 22 52 20 66 -5z m-7 -109 c46 -17 27 -70 -24 -70
-47 0 -66 40 -32 66 21 16 24 17 56 4z"/>
<path d="M1610 3800 c-30 -7 -141 -164 -137 -194 2 -16 11 -19 67 -20 59 -1
65 -3 68 -23 3 -18 10 -23 33 -23 26 0 29 3 29 31 0 23 5 32 20 36 27 7 22 37
-6 41 -22 3 -33 39 -34 107 0 41 -11 52 -40 45z m-11 -137 c1 -16 -6 -23 -30
-28 -17 -4 -33 -5 -36 -2 -2 3 8 27 23 53 27 46 29 47 35 24 4 -14 7 -35 8
-47z"/>
<path d="M4793 3683 c-26 -5 -123 -166 -123 -203 0 -22 2 -23 69 -16 l69 6 7
-30 c4 -20 13 -30 25 -30 36 0 47 10 42 40 -3 22 0 30 11 30 36 0 30 47 -6 52
-17 2 -24 15 -36 77 -16 76 -20 81 -58 74z m-1 -128 c3 -39 2 -40 -29 -43 -18
-2 -33 -1 -33 2 0 17 45 95 51 89 4 -5 9 -26 11 -48z"/>
<path d="M4556 3281 c-4 -5 -2 -12 3 -15 5 -4 12 -2 15 3 4 5 2 12 -3 15 -5 4
-12 2 -15 -3z"/>
<path d="M4278 3243 c6 -2 18 -2 25 0 6 3 1 5 -13 5 -14 0 -19 -2 -12 -5z"/>
<path d="M4030 3225 c0 -8 4 -15 10 -15 5 0 7 7 4 15 -4 8 -8 15 -10 15 -2 0
-4 -7 -4 -15z"/>
<path d="M4098 3223 c7 -3 16 -2 19 1 4 3 -2 6 -13 5 -11 0 -14 -3 -6 -6z"/>
<path d="M3763 3067 c-28 -14 -43 -28 -43 -40 0 -16 5 -18 33 -13 l34 6 12
-82 c19 -127 19 -128 51 -128 16 0 31 3 33 8 4 6 -24 194 -38 250 -7 27 -27
27 -82 -1z"/>
<path d="M4091 2894 c0 -11 3 -14 6 -6 3 7 2 16 -1 19 -3 4 -6 -2 -5 -13z"/>
<path d="M4650 2790 c0 -5 5 -10 10 -10 6 0 10 5 10 10 0 6 -4 10 -10 10 -5 0
-10 -4 -10 -10z"/>
<path d="M4111 2774 c0 -11 3 -14 6 -6 3 7 2 16 -1 19 -3 4 -6 -2 -5 -13z"/>
<path d="M4328 2753 c6 -2 18 -2 25 0 6 3 1 5 -13 5 -14 0 -19 -2 -12 -5z"/>
<path d="M4228 2743 c7 -3 16 -2 19 1 4 3 -2 6 -13 5 -11 0 -14 -3 -6 -6z"/>
<path d="M4120 2729 c0 -5 5 -7 10 -4 6 3 10 8 10 11 0 2 -4 4 -10 4 -5 0 -10
-5 -10 -11z"/>
<path d="M2921 3424 c0 -11 3 -14 6 -6 3 7 2 16 -1 19 -3 4 -6 -2 -5 -13z"/>
<path d="M2960 3101 c0 -6 5 -13 10 -16 6 -3 10 1 10 9 0 9 -4 16 -10 16 -5 0
-10 -4 -10 -9z"/>
<path d="M3239 3028 c-21 -5 -48 -21 -60 -35 -20 -21 -24 -35 -24 -91 1 -83
22 -128 72 -148 46 -20 108 -10 140 22 27 27 31 88 8 121 -22 31 -78 40 -121
19 -34 -16 -34 -15 -34 8 0 35 44 66 92 66 35 0 39 2 36 23 -2 18 -10 22 -38
24 -19 1 -51 -3 -71 -9z m79 -196 c-3 -33 -6 -37 -35 -40 -24 -2 -34 2 -43 18
-17 32 -9 63 20 71 41 10 62 -7 58 -49z"/>
<path d="M2318 3023 c7 -3 16 -2 19 1 4 3 -2 6 -13 5 -11 0 -14 -3 -6 -6z"/>
<path d="M2148 3003 c7 -3 16 -2 19 1 4 3 -2 6 -13 5 -11 0 -14 -3 -6 -6z"/>
<path d="M2053 2993 c9 -2 23 -2 30 0 6 3 -1 5 -18 5 -16 0 -22 -2 -12 -5z"/>
<path d="M2190 2911 l-55 -6 -3 -54 c-5 -90 -1 -96 60 -96 52 0 53 -1 56 -31
3 -27 -1 -33 -27 -44 -17 -7 -44 -10 -61 -8 -31 5 -34 1 -24 -26 8 -21 104
-22 143 -1 33 17 41 33 41 85 0 58 -31 83 -92 77 -47 -4 -48 -3 -48 23 0 32
15 40 71 40 35 0 39 3 39 25 0 27 3 27 -100 16z"/>
<path d="M3012 2780 c0 -14 2 -19 5 -12 2 6 2 18 0 25 -3 6 -5 1 -5 -13z"/>
<path d="M3030 2623 c0 -13 5 -23 10 -23 13 0 13 11 0 30 -8 12 -10 11 -10 -7z"/>
<path d="M3041 2554 c0 -11 3 -14 6 -6 3 7 2 16 -1 19 -3 4 -6 -2 -5 -13z"/>
<path d="M2490 2556 c0 -9 30 -14 35 -6 4 6 -3 10 -14 10 -12 0 -21 -2 -21 -4z"/>
<path d="M2148 2513 c6 -2 18 -2 25 0 6 3 1 5 -13 5 -14 0 -19 -2 -12 -5z"/>
<path d="M2058 2503 c6 -2 18 -2 25 0 6 3 1 5 -13 5 -14 0 -19 -2 -12 -5z"/>
<path d="M2763 2483 c-34 -7 -73 -49 -73 -79 0 -16 11 -36 28 -52 l28 -25 -23
-23 c-30 -30 -29 -65 1 -93 19 -18 36 -23 78 -23 65 0 102 13 123 46 23 35 12
78 -25 100 l-30 17 21 29 c50 68 -20 124 -128 103z m72 -54 c4 -5 4 -21 1 -35
-5 -20 -12 -25 -33 -22 -54 6 -58 68 -4 68 16 0 33 -5 36 -11z m-5 -119 c11 0
40 -29 40 -40 0 -18 -33 -40 -60 -40 -41 0 -57 32 -35 66 10 16 22 23 32 20 8
-3 18 -6 23 -6z"/>
<path d="M3062 2425 c0 -16 2 -22 5 -12 2 9 2 23 0 30 -3 6 -5 -1 -5 -18z"/>
<path d="M3072 2345 c0 -16 2 -22 5 -12 2 9 2 23 0 30 -3 6 -5 -1 -5 -18z"/>
<path d="M3082 2280 c0 -19 2 -27 5 -17 2 9 2 25 0 35 -3 9 -5 1 -5 -18z"/>
<path d="M560 3201 c-46 -9 -60 -18 -60 -40 0 -16 7 -17 49 -13 41 4 51 1 59
-15 14 -26 -6 -64 -64 -123 -24 -25 -44 -54 -44 -64 0 -17 6 -18 68 -13 37 4
82 7 100 7 28 0 32 3 32 26 0 25 -1 25 -55 19 -31 -4 -55 -3 -55 2 0 5 16 24
35 42 46 43 64 80 58 113 -9 49 -56 71 -123 59z"/>
<path d="M1372 3140 c0 -14 2 -19 5 -12 2 6 2 18 0 25 -3 6 -5 1 -5 -13z"/>
<path d="M1381 3044 c0 -11 3 -14 6 -6 3 7 2 16 -1 19 -3 4 -6 -2 -5 -13z"/>
<path d="M1392 2925 c0 -16 2 -22 5 -12 2 9 2 23 0 30 -3 6 -5 -1 -5 -18z"/>
<path d="M867 2873 c-2 -5 0 -21 4 -38 7 -29 7 -29 8 8 1 35 -3 46 -12 30z"/>
<path d="M1641 2850 c-72 -17 -97 -84 -48 -126 l26 -22 -25 -23 c-60 -57 -1
-128 95 -114 74 11 110 38 111 83 0 35 -16 59 -46 66 l-27 7 21 22 c38 41 33
84 -13 103 -38 15 -44 16 -94 4z m68 -54 c15 -18 -2 -56 -25 -56 -39 0 -70 41
-47 63 12 12 60 7 72 -7z m-6 -115 c50 -19 34 -71 -22 -71 -47 0 -66 34 -35
64 18 19 24 19 57 7z"/>
<path d="M881 2734 c0 -11 3 -14 6 -6 3 7 2 16 -1 19 -3 4 -6 -2 -5 -13z"/>
<path d="M892 2600 c0 -19 2 -27 5 -17 2 9 2 25 0 35 -3 9 -5 1 -5 -18z"/>
<path d="M903 2475 c0 -27 2 -38 4 -22 2 15 2 37 0 50 -2 12 -4 0 -4 -28z"/>
<path d="M1435 2441 c-3 -5 -1 -12 5 -16 5 -3 10 1 10 9 0 18 -6 21 -15 7z"/>
<path d="M908 2383 c-2 -5 -1 -24 3 -43 l6 -35 2 43 c1 39 -3 52 -11 35z"/>
<path d="M922 2230 c0 -14 2 -19 5 -12 2 6 2 18 0 25 -3 6 -5 1 -5 -13z"/>
<path d="M4801 2024 c0 -11 3 -14 6 -6 3 7 2 16 -1 19 -3 4 -6 -2 -5 -13z"/>
<path d="M4832 1875 c0 -16 2 -22 5 -12 2 9 2 23 0 30 -3 6 -5 -1 -5 -18z"/>
<path d="M4841 1814 c0 -11 3 -14 6 -6 3 7 2 16 -1 19 -3 4 -6 -2 -5 -13z"/>
<path d="M5248 1793 c12 -2 30 -2 40 0 9 3 -1 5 -23 4 -22 0 -30 -2 -17 -4z"/>
<path d="M5135 1785 c-5 -2 -66 -9 -134 -16 -68 -7 -118 -15 -111 -17 12 -4
140 9 280 28 47 7 50 8 15 8 -22 0 -44 -1 -50 -3z"/>
<path d="M4850 1768 c0 -11 -10 -18 -32 -21 -29 -3 -27 -4 10 -5 43 -2 49 2
32 28 -8 13 -10 13 -10 -2z"/>
<path d="M4708 1733 c12 -2 32 -2 45 0 12 2 2 4 -23 4 -25 0 -35 -2 -22 -4z"/>
<path d="M4618 1723 c12 -2 30 -2 40 0 9 3 -1 5 -23 4 -22 0 -30 -2 -17 -4z"/>
<path d="M4518 1713 c12 -2 30 -2 40 0 9 3 -1 5 -23 4 -22 0 -30 -2 -17 -4z"/>
<path d="M4428 1703 c12 -2 32 -2 45 0 12 2 2 4 -23 4 -25 0 -35 -2 -22 -4z"/>
<path d="M4275 1691 l-30 -7 32 -5 c18 -3 36 -2 40 2 5 4 24 9 43 12 30 3 28
4 -10 4 -25 0 -58 -2 -75 -6z"/>
<path d="M4163 1673 c9 -2 25 -2 35 0 9 3 1 5 -18 5 -19 0 -27 -2 -17 -5z"/>
<path d="M4058 1663 c7 -3 16 -2 19 1 4 3 -2 6 -13 5 -11 0 -14 -3 -6 -6z"/>
<path d="M4311 1634 c0 -11 3 -14 6 -6 3 7 2 16 -1 19 -3 4 -6 -2 -5 -13z"/>
<path d="M4322 1570 c0 -14 2 -19 5 -12 2 6 2 18 0 25 -3 6 -5 1 -5 -13z"/>
<path d="M4891 1564 c0 -11 3 -14 6 -6 3 7 2 16 -1 19 -3 4 -6 -2 -5 -13z"/>
<path d="M4021 1549 c-41 -5 -75 -10 -77 -11 -1 -2 0 -15 3 -31 6 -29 12 -30
131 -12 26 4 26 4 8 -39 -13 -31 -66 -208 -66 -220 0 -3 16 -6 35 -6 34 0 34
1 54 68 36 121 51 189 51 226 0 41 1 41 -139 25z"/>
<path d="M4331 1514 c0 -11 3 -14 6 -6 3 7 2 16 -1 19 -3 4 -6 -2 -5 -13z"/>
<path d="M4342 1460 c0 -14 2 -19 5 -12 2 6 2 18 0 25 -3 6 -5 1 -5 -13z"/>
<path d="M4352 1400 c0 -14 2 -19 5 -12 2 6 2 18 0 25 -3 6 -5 1 -5 -13z"/>
<path d="M4362 1340 c0 -14 2 -19 5 -12 2 6 2 18 0 25 -3 6 -5 1 -5 -13z"/>
<path d="M4372 1285 c0 -16 2 -22 5 -12 2 9 2 23 0 30 -3 6 -5 -1 -5 -18z"/>
<path d="M5368 1263 c12 -2 30 -2 40 0 9 3 -1 5 -23 4 -22 0 -30 -2 -17 -4z"/>
<path d="M5293 1253 c9 -2 25 -2 35 0 9 3 1 5 -18 5 -19 0 -27 -2 -17 -5z"/>
<path d="M4381 1234 c0 -11 3 -14 6 -6 3 7 2 16 -1 19 -3 4 -6 -2 -5 -13z"/>
<path d="M5203 1243 c9 -2 25 -2 35 0 9 3 1 5 -18 5 -19 0 -27 -2 -17 -5z"/>
<path d="M5138 1233 c6 -2 18 -2 25 0 6 3 1 5 -13 5 -14 0 -19 -2 -12 -5z"/>
<path d="M4955 1220 c-8 -13 9 -20 24 -11 10 6 9 10 -3 14 -8 3 -18 2 -21 -3z"/>
<path d="M5043 1223 c9 -2 25 -2 35 0 9 3 1 5 -18 5 -19 0 -27 -2 -17 -5z"/>
<path d="M4392 1175 c0 -16 3 -39 8 -50 8 -18 9 -18 8 5 0 14 -4 36 -8 50 -8
24 -8 24 -8 -5z"/>
<path d="M4695 1073 c-81 -10 -78 -7 -71 -81 11 -102 9 -100 66 -94 56 5 80
-8 80 -43 0 -33 -27 -50 -82 -50 -48 0 -60 -12 -40 -41 22 -34 126 -26 173 13
23 20 29 33 29 64 0 81 -49 123 -135 116 -25 -2 -31 2 -33 22 -4 28 12 41 55
41 47 0 63 9 63 36 0 21 -4 24 -37 23 -21 -1 -51 -4 -68 -6z"/>
<path d="M4094 1001 c-43 -11 -54 -19 -54 -41 0 -27 13 -32 59 -21 79 17 105
-38 54 -114 -14 -22 -29 -42 -33 -45 -32 -26 -55 -110 -30 -110 22 0 205 22
208 25 2 1 0 15 -4 29 -6 26 -8 27 -65 20 -33 -4 -59 -3 -59 1 0 4 15 25 34
46 63 69 69 146 16 194 -22 20 -82 27 -126 16z"/>
<path d="M5042 795 c0 -16 2 -22 5 -12 2 9 2 23 0 30 -3 6 -5 -1 -5 -18z"/>
<path d="M3122 2000 c0 -19 2 -27 5 -17 2 9 2 25 0 35 -3 9 -5 1 -5 -18z"/>
<path d="M2582 1970 c0 -14 2 -19 5 -12 2 6 2 18 0 25 -3 6 -5 1 -5 -13z"/>
<path d="M3132 1930 c0 -19 2 -27 5 -17 2 9 2 25 0 35 -3 9 -5 1 -5 -18z"/>
<path d="M2592 1900 c0 -14 2 -19 5 -12 2 6 2 18 0 25 -3 6 -5 1 -5 -13z"/>
<path d="M3142 1860 c0 -19 2 -27 5 -17 2 9 2 25 0 35 -3 9 -5 1 -5 -18z"/>
<path d="M2602 1820 c0 -14 2 -19 5 -12 2 6 2 18 0 25 -3 6 -5 1 -5 -13z"/>
<path d="M3152 1790 c0 -14 2 -19 5 -12 2 6 2 18 0 25 -3 6 -5 1 -5 -13z"/>
<path d="M2612 1740 c0 -14 2 -19 5 -12 2 6 2 18 0 25 -3 6 -5 1 -5 -13z"/>
<path d="M3162 1720 c0 -19 2 -27 5 -17 2 9 2 25 0 35 -3 9 -5 1 -5 -18z"/>
<path d="M2622 1665 c0 -16 2 -22 5 -12 2 9 2 23 0 30 -3 6 -5 -1 -5 -18z"/>
<path d="M3172 1655 c0 -16 2 -22 5 -12 2 9 2 23 0 30 -3 6 -5 -1 -5 -18z"/>
<path d="M2632 1595 c0 -16 2 -22 5 -12 2 9 2 23 0 30 -3 6 -5 -1 -5 -18z"/>
<path d="M3513 1603 c9 -2 23 -2 30 0 6 3 -1 5 -18 5 -16 0 -22 -2 -12 -5z"/>
<path d="M3181 1588 c-1 -12 -10 -18 -28 -19 l-28 -1 30 -7 c32 -8 63 -2 47 8
-5 3 -12 13 -15 21 -4 12 -6 11 -6 -2z"/>
<path d="M3408 1593 c6 -2 18 -2 25 0 6 3 1 5 -13 5 -14 0 -19 -2 -12 -5z"/>
<path d="M3323 1583 c9 -2 25 -2 35 0 9 3 1 5 -18 5 -19 0 -27 -2 -17 -5z"/>
<path d="M3238 1573 c12 -2 30 -2 40 0 9 3 -1 5 -23 4 -22 0 -30 -2 -17 -4z"/>
<path d="M2990 1550 c-40 -6 -41 -7 -10 -8 19 0 60 3 90 8 54 7 54 7 10 7 -25
0 -65 -3 -90 -7z"/>
<path d="M2805 1530 c-33 -5 -87 -11 -120 -14 -33 -4 -87 -11 -120 -16 l-60
-9 68 4 c48 3 67 1 67 -8 0 -8 3 -8 9 1 5 9 52 19 132 28 68 8 133 16 144 18
39 7 -61 3 -120 -4z"/>
<path d="M3191 1504 c0 -11 3 -14 6 -6 3 7 2 16 -1 19 -3 4 -6 -2 -5 -13z"/>
<path d="M2438 1483 c12 -2 32 -2 45 0 12 2 2 4 -23 4 -25 0 -35 -2 -22 -4z"/>
<path d="M3418 1474 c-35 -18 -48 -43 -48 -89 0 -79 72 -125 141 -91 40 20 39
20 39 -6 0 -44 -35 -68 -99 -68 -33 0 -41 -4 -41 -18 0 -10 5 -23 12 -30 30
-30 149 2 182 49 19 28 21 137 2 189 -25 69 -120 101 -188 64z m108 -58 c22
-35 15 -69 -18 -80 -34 -12 -68 14 -68 54 0 52 57 70 86 26z"/>
<path d="M2295 1470 c-33 -6 -35 -7 -10 -8 17 0 53 3 80 8 47 7 48 7 10 7 -22
0 -58 -3 -80 -7z"/>
<path d="M2188 1453 c12 -2 30 -2 40 0 9 3 -1 5 -23 4 -22 0 -30 -2 -17 -4z"/>
<path d="M3202 1440 c0 -14 2 -19 5 -12 2 6 2 18 0 25 -3 6 -5 1 -5 -13z"/>
<path d="M2652 1425 c0 -16 2 -22 5 -12 2 9 2 23 0 30 -3 6 -5 -1 -5 -18z"/>
<path d="M3212 1360 c0 -14 2 -19 5 -12 2 6 2 18 0 25 -3 6 -5 1 -5 -13z"/>
<path d="M2375 1363 c-68 -15 -85 -25 -85 -49 0 -24 2 -24 50 -18 104 14 107
-49 8 -168 -30 -36 -37 -52 -32 -72 5 -21 10 -24 37 -20 18 3 61 8 97 12 62 7
65 8 68 36 l4 29 -61 -7 c-34 -4 -61 -3 -61 2 0 4 14 21 31 38 41 39 59 75 59
119 0 49 -15 74 -55 91 -19 8 -36 13 -37 13 -2 -1 -12 -3 -23 -6z"/>
<path d="M2661 1344 c0 -11 3 -14 6 -6 3 7 2 16 -1 19 -3 4 -6 -2 -5 -13z"/>
<path d="M3222 1295 c0 -16 2 -22 5 -12 2 9 2 23 0 30 -3 6 -5 -1 -5 -18z"/>
<path d="M2672 1265 c0 -16 2 -22 5 -12 2 9 2 23 0 30 -3 6 -5 -1 -5 -18z"/>
<path d="M2681 1184 c0 -11 3 -14 6 -6 3 7 2 16 -1 19 -3 4 -6 -2 -5 -13z"/>
<path d="M3241 1164 c0 -11 3 -14 6 -6 3 7 2 16 -1 19 -3 4 -6 -2 -5 -13z"/>
<path d="M2692 1110 c0 -14 2 -19 5 -12 2 6 2 18 0 25 -3 6 -5 1 -5 -13z"/>
<path d="M3251 1068 c-1 -32 -5 -37 -28 -41 -26 -4 -26 -4 5 -6 26 -1 32 -5
33 -23 1 -22 1 -22 8 2 4 14 4 30 0 35 -4 6 -9 24 -12 40 -4 28 -4 27 -6 -7z"/>
<path d="M3758 1083 c7 -3 16 -2 19 1 4 3 -2 6 -13 5 -11 0 -14 -3 -6 -6z"/>
<path d="M3583 1063 c9 -2 23 -2 30 0 6 3 -1 5 -18 5 -16 0 -22 -2 -12 -5z"/>
<path d="M3493 1053 c9 -2 25 -2 35 0 9 3 1 5 -18 5 -19 0 -27 -2 -17 -5z"/>
<path d="M3408 1043 c12 -2 30 -2 40 0 9 3 -1 5 -23 4 -22 0 -30 -2 -17 -4z"/>
<path d="M3308 1033 c12 -2 32 -2 45 0 12 2 2 4 -23 4 -25 0 -35 -2 -22 -4z"/>
<path d="M3128 1013 c12 -2 30 -2 40 0 9 3 -1 5 -23 4 -22 0 -30 -2 -17 -4z"/>
<path d="M3053 1003 c9 -2 25 -2 35 0 9 3 1 5 -18 5 -19 0 -27 -2 -17 -5z"/>
<path d="M2963 993 c9 -2 25 -2 35 0 9 3 1 5 -18 5 -19 0 -27 -2 -17 -5z"/>
<path d="M2868 983 c12 -2 30 -2 40 0 9 3 -1 5 -23 4 -22 0 -30 -2 -17 -4z"/>
<path d="M2701 971 c-10 -6 -9 -10 3 -14 8 -3 18 -2 21 3 8 13 -9 20 -24 11z"/>
<path d="M2783 973 c9 -2 23 -2 30 0 6 3 -1 5 -18 5 -16 0 -22 -2 -12 -5z"/>
<path d="M3272 945 c0 -16 2 -22 5 -12 2 9 2 23 0 30 -3 6 -5 -1 -5 -18z"/>
<path d="M2608 953 c6 -2 18 -2 25 0 6 3 1 5 -13 5 -14 0 -19 -2 -12 -5z"/>
<path d="M3545 943 c-89 -10 -96 -13 -93 -36 3 -21 7 -22 82 -20 71 3 77 1 70
-15 -19 -42 -85 -254 -81 -258 3 -3 21 -2 40 1 34 7 35 9 57 88 12 45 29 104
36 131 8 27 14 65 14 83 0 33 0 33 -47 32 -27 -1 -61 -4 -78 -6z"/>
<path d="M3282 865 c0 -16 2 -22 5 -12 2 9 2 23 0 30 -3 6 -5 -1 -5 -18z"/>
<path d="M2480 824 c-13 -4 -31 -32 -116 -179 -15 -26 -21 -49 -17 -63 5 -22
9 -23 70 -16 71 7 83 1 83 -44 0 -20 4 -23 33 -20 29 3 32 6 32 38 0 27 5 37
23 45 30 13 25 47 -8 55 -23 5 -26 12 -37 95 -6 50 -12 91 -12 93 -1 3 -33 1
-51 -4z m3 -141 c3 -27 3 -51 0 -55 -6 -10 -76 -10 -71 0 26 54 53 102 59 102
3 0 9 -21 12 -47z"/>
<path d="M3292 800 c0 -14 3 -45 7 -70 6 -34 9 -37 9 -15 1 17 -3 48 -7 70 -6
25 -9 31 -9 15z"/>
<path d="M2008 1433 c6 -2 18 -2 25 0 6 3 1 5 -13 5 -14 0 -19 -2 -12 -5z"/>
<path d="M1933 1423 c9 -2 25 -2 35 0 9 3 1 5 -18 5 -19 0 -27 -2 -17 -5z"/>
<path d="M1530 1380 c0 -5 5 -10 10 -10 6 0 10 5 10 10 0 6 -4 10 -10 10 -5 0
-10 -4 -10 -10z"/>
<path d="M1383 1363 c9 -2 23 -2 30 0 6 3 -1 5 -18 5 -16 0 -22 -2 -12 -5z"/>
<path d="M1298 1353 c7 -3 16 -2 19 1 4 3 -2 6 -13 5 -11 0 -14 -3 -6 -6z"/>
<path d="M1198 1343 c6 -2 18 -2 25 0 6 3 1 5 -13 5 -14 0 -19 -2 -12 -5z"/>
<path d="M990 1333 c0 -6 -12 -13 -27 -15 -27 -3 -27 -4 5 -9 36 -6 45 0 31
21 -5 9 -9 10 -9 3z"/>
<path d="M1123 1333 c9 -2 23 -2 30 0 6 3 -1 5 -18 5 -16 0 -22 -2 -12 -5z"/>
<path d="M1033 1323 c9 -2 23 -2 30 0 6 3 -1 5 -18 5 -16 0 -22 -2 -12 -5z"/>
<path d="M868 1303 c12 -2 30 -2 40 0 9 3 -1 5 -23 4 -22 0 -30 -2 -17 -4z"/>
<path d="M1815 1303 c-80 -10 -76 -5 -73 -95 l3 -82 51 3 c58 3 80 -14 70 -53
-7 -27 -30 -38 -83 -38 -38 0 -53 -19 -33 -43 16 -19 89 -20 134 -1 33 14 70
71 62 98 -2 7 -7 25 -10 40 -9 38 -56 61 -108 53 l-39 -7 3 34 c2 27 8 33 28
36 80 8 90 12 90 37 0 26 -12 29 -95 18z"/>
<path d="M725 1290 c-34 -6 -35 -7 -10 -8 17 0 50 3 75 7 40 8 41 8 10 8 -19
0 -53 -3 -75 -7z"/>
<path d="M618 1273 c12 -2 30 -2 40 0 9 3 -1 5 -23 4 -22 0 -30 -2 -17 -4z"/>
<path d="M538 1263 c12 -2 30 -2 40 0 9 3 -1 5 -23 4 -22 0 -30 -2 -17 -4z"/>
<path d="M1580 834 c0 -8 5 -12 10 -9 6 3 10 10 10 16 0 5 -4 9 -10 9 -5 0
-10 -7 -10 -16z"/>
<path d="M1473 823 c9 -2 23 -2 30 0 6 3 -1 5 -18 5 -16 0 -22 -2 -12 -5z"/>
<path d="M1388 813 c6 -2 18 -2 25 0 6 3 1 5 -13 5 -14 0 -19 -2 -12 -5z"/>
<path d="M1303 803 c9 -2 23 -2 30 0 6 3 -1 5 -18 5 -16 0 -22 -2 -12 -5z"/>
<path d="M1213 793 c9 -2 25 -2 35 0 9 3 1 5 -18 5 -19 0 -27 -2 -17 -5z"/>
<path d="M1592 780 c0 -14 2 -19 5 -12 2 6 2 18 0 25 -3 6 -5 1 -5 -13z"/>
<path d="M1133 783 c9 -2 25 -2 35 0 9 3 1 5 -18 5 -19 0 -27 -2 -17 -5z"/>
<path d="M1030 772 c0 -5 14 -7 30 -4 17 2 30 6 30 8 0 2 -13 4 -30 4 -16 0
-30 -4 -30 -8z"/>
<path d="M978 763 c6 -2 18 -2 25 0 6 3 1 5 -13 5 -14 0 -19 -2 -12 -5z"/>
<path d="M888 753 c6 -2 18 -2 25 0 6 3 1 5 -13 5 -14 0 -19 -2 -12 -5z"/>
<path d="M1820 747 c-28 -9 -36 -18 -38 -41 -3 -24 -1 -28 15 -22 43 18 80 18
96 1 9 -9 17 -20 17 -25 0 -17 -32 -40 -56 -40 -20 0 -24 -5 -24 -31 0 -26 3
-29 21 -24 54 18 98 -28 63 -66 -13 -14 -30 -19 -71 -19 -44 0 -53 -3 -53 -18
0 -29 21 -42 67 -42 86 0 143 43 143 107 0 36 -29 73 -57 73 -14 0 -14 3 4 23
28 31 34 52 22 85 -17 49 -76 64 -149 39z"/>
<path d="M728 733 c7 -3 16 -2 19 1 4 3 -2 6 -13 5 -11 0 -14 -3 -6 -6z"/>
<path d="M633 723 c9 -2 23 -2 30 0 6 3 -1 5 -18 5 -16 0 -22 -2 -12 -5z"/>
<path d="M1314 689 c-18 -5 -46 -25 -63 -44 -29 -33 -31 -41 -31 -111 0 -123
34 -174 118 -174 103 0 161 85 117 170 -21 41 -86 52 -147 25 -25 -10 -24 25
0 55 13 17 32 24 71 28 49 4 52 6 49 31 -3 23 -8 26 -43 28 -22 1 -54 -3 -71
-8z m64 -181 c17 -17 15 -73 -2 -88 -28 -23 -60 -8 -74 35 -12 35 -11 41 4 52
22 16 56 17 72 1z"/>
<path d="M1602 650 c0 -19 2 -27 5 -17 2 9 2 25 0 35 -3 9 -5 1 -5 -18z"/>
<path d="M1613 550 c0 -25 2 -35 4 -22 2 12 2 32 0 45 -2 12 -4 2 -4 -23z"/>
<path d="M1622 440 c0 -19 2 -27 5 -17 2 9 2 25 0 35 -3 9 -5 1 -5 -18z"/>
<path d="M1297 5209 c7 -7 9 -25 6 -40 -3 -16 -1 -29 4 -29 5 0 10 18 11 40 2
32 -1 40 -15 40 -13 0 -14 -3 -6 -11z"/>
<path d="M1084 5185 c-6 -15 36 -59 46 -48 3 3 -5 12 -17 20 -28 19 -30 37 -3
30 11 -3 20 -1 20 4 0 15 -40 10 -46 -6z"/>
<path d="M981 5148 c1 -28 3 -34 6 -18 3 14 9 30 14 36 5 6 6 14 2 17 -16 16
-23 4 -22 -35z"/>
<path d="M1027 5178 c4 -7 6 -25 4 -40 -1 -16 1 -28 6 -28 4 0 9 18 11 40 2
31 -1 40 -13 40 -10 0 -13 -5 -8 -12z"/>
<path d="M769 5173 c0 -5 -2 -25 -4 -45 -2 -21 0 -40 6 -43 5 -4 9 9 9 29 0
19 3 41 6 50 3 9 1 16 -5 16 -6 0 -11 -3 -12 -7z"/>
<path d="M879 5178 c-5 -24 -4 -80 3 -84 4 -3 8 15 8 40 0 25 -2 46 -5 46 -3
0 -5 -1 -6 -2z"/>
<path d="M928 5140 c2 -22 6 -40 8 -40 2 0 4 18 4 40 0 22 -3 40 -8 40 -4 0
-6 -18 -4 -40z"/>
<path d="M5698 5170 c-5 -17 3 -80 11 -80 8 0 8 77 -1 85 -3 3 -8 1 -10 -5z"/>
<path d="M5810 5163 c1 -20 23 -53 36 -53 4 0 3 5 -4 12 -7 7 -12 20 -12 29 0
10 -4 21 -10 24 -5 3 -10 -2 -10 -12z"/>
<path d="M827 5143 c-14 -28 -13 -53 3 -53 4 0 6 9 3 19 -3 10 0 28 6 40 7 12
9 21 7 21 -3 0 -12 -12 -19 -27z"/>
<path d="M5600 5121 c0 -28 5 -51 10 -51 6 0 10 20 10 44 0 25 -4 48 -10 51
-6 4 -10 -13 -10 -44z"/>
<path d="M5756 5162 c6 -4 14 -19 18 -34 7 -31 21 -36 30 -13 3 9 0 15 -9 15
-8 0 -15 9 -15 20 0 12 -7 20 -17 20 -11 0 -14 -3 -7 -8z"/>
<path d="M714 5120 c-1 -22 2 -40 7 -40 5 0 9 18 9 40 0 22 -3 40 -8 40 -4 0
-8 -18 -8 -40z"/>
<path d="M661 5108 c1 -37 2 -39 9 -18 12 36 12 60 0 60 -5 0 -10 -19 -9 -42z"/>
<path d="M172 5081 c-2 -47 0 -60 14 -65 14 -5 15 -4 4 9 -8 10 -9 23 -3 42 9
30 6 73 -5 73 -4 0 -8 -26 -10 -59z"/>
<path d="M525 5130 c3 -5 8 -10 11 -10 2 0 4 5 4 10 0 6 -5 10 -11 10 -5 0 -7
-4 -4 -10z"/>
<path d="M615 5105 c0 -18 3 -31 8 -28 4 2 7 15 7 28 0 13 -3 26 -7 28 -5 3
-8 -10 -8 -28z"/>
<path d="M567 5123 c-9 -9 -9 -51 1 -56 4 -3 7 10 7 29 0 19 0 34 -1 34 0 0
-4 -3 -7 -7z"/>
<path d="M1973 5068 c0 -35 1 -53 4 -40 2 12 7 22 10 22 2 0 13 -10 24 -22
l19 -23 -11 28 c-7 15 -16 27 -21 27 -4 0 -8 16 -8 35 0 19 -4 35 -8 35 -4 0
-8 -28 -9 -62z"/>
<path d="M5280 5071 c0 -34 4 -61 8 -61 13 0 15 107 2 115 -6 4 -10 -15 -10
-54z"/>
<path d="M5521 5118 c0 -10 8 -22 19 -28 12 -7 17 -16 13 -27 -4 -11 -3 -14 5
-9 19 11 14 37 -7 43 -11 3 -22 12 -24 22 -4 14 -5 14 -6 -1z"/>
<path d="M375 5098 c4 -13 15 -31 24 -41 17 -17 18 -17 13 11 -2 15 -13 34
-24 41 -18 11 -19 10 -13 -11z"/>
<path d="M484 5106 c-9 -22 -1 -49 16 -54 13 -4 13 -3 2 11 -8 9 -11 25 -7 37
7 23 -3 28 -11 6z"/>
<path d="M1829 5103 c-3 -54 -7 -84 -13 -98 -3 -9 0 -15 9 -15 12 0 15 15 15
65 0 36 -2 65 -5 65 -3 0 -5 -8 -6 -17z"/>
<path d="M5472 5085 c0 -19 4 -38 9 -41 5 -3 9 13 9 35 0 23 -4 41 -9 41 -5 0
-9 -16 -9 -35z"/>
<path d="M225 5070 c0 -21 3 -36 8 -33 10 6 9 61 -1 67 -4 2 -8 -13 -7 -34z"/>
<path d="M270 5085 c-10 -26 -4 -55 12 -55 5 0 5 6 -1 17 -5 10 -5 26 0 40 5
13 6 23 4 23 -3 0 -10 -11 -15 -25z"/>
<path d="M321 5075 c0 -35 2 -37 11 -19 7 15 7 28 -1 40 -9 16 -10 12 -10 -21z"/>
<path d="M2120 5089 c0 -11 -4 -29 -10 -39 -7 -13 -6 -19 5 -24 12 -4 15 4 15
39 0 25 -2 45 -5 45 -3 0 -5 -9 -5 -21z"/>
<path d="M2062 5060 c-1 -26 2 -40 11 -40 9 0 11 12 9 40 -2 22 -7 40 -11 40
-4 0 -8 -18 -9 -40z"/>
<path d="M5343 5088 c-29 -37 -15 -75 24 -65 14 4 13 5 -5 6 -18 1 -22 6 -20
24 2 12 7 28 11 35 5 6 6 12 4 12 -3 0 -9 -6 -14 -12z"/>
<path d="M5419 5079 c-8 -17 -8 -24 3 -36 13 -12 14 -9 14 22 -1 19 -2 35 -3
35 -1 0 -7 -10 -14 -21z"/>
<path d="M5189 5083 c-5 -25 -3 -83 2 -83 10 0 16 81 7 86 -4 3 -9 2 -9 -3z"/>
<path d="M1928 5054 c3 -15 -3 -33 -14 -47 l-19 -22 23 19 c22 19 30 60 13 70
-4 3 -6 -6 -3 -20z"/>
<path d="M1877 5063 c-9 -9 -9 -51 1 -56 4 -3 7 10 7 29 0 19 0 34 -1 34 0 0
-4 -3 -7 -7z"/>
<path d="M1672 5019 c2 -27 8 -44 18 -46 12 -4 12 -3 1 5 -9 6 -11 19 -6 40 4
18 2 33 -5 37 -8 5 -10 -6 -8 -36z"/>
<path d="M1723 5020 c-8 -32 -8 -40 3 -40 10 0 14 13 14 40 0 22 -1 40 -3 40
-2 0 -8 -18 -14 -40z"/>
<path d="M5091 5047 c-20 -25 -18 -61 4 -64 11 -1 14 0 8 3 -16 7 -17 46 -1
62 7 7 9 12 6 12 -3 0 -11 -6 -17 -13z"/>
<path d="M5128 5025 c-3 -24 0 -35 9 -35 8 0 13 13 13 35 0 19 -4 35 -9 35 -5
0 -11 -16 -13 -35z"/>
<path d="M1595 5039 c-4 -6 2 -21 14 -33 12 -12 19 -26 16 -29 -3 -4 0 -3 7 3
9 7 6 16 -10 33 -12 13 -19 27 -15 30 3 4 4 7 0 7 -3 0 -9 -5 -12 -11z"/>
<path d="M1435 4994 c0 -24 3 -44 8 -44 4 0 7 11 7 24 0 13 3 31 6 39 3 8 -1
17 -8 20 -10 3 -13 -7 -13 -39z"/>
<path d="M1488 5000 c2 -22 6 -40 8 -40 2 0 4 18 4 40 0 22 -3 40 -8 40 -4 0
-6 -18 -4 -40z"/>
<path d="M1773 5016 c1 -17 9 -31 17 -33 10 -3 11 -2 4 4 -7 4 -14 19 -17 33
-4 22 -5 21 -4 -4z"/>
<path d="M1385 4990 c0 -22 3 -40 8 -40 4 0 7 8 7 18 0 9 3 27 6 40 4 15 2 22
-7 22 -10 0 -14 -13 -14 -40z"/>
<path d="M915 5010 c-3 -5 -1 -10 4 -10 6 0 11 5 11 10 0 6 -2 10 -4 10 -3 0
-8 -4 -11 -10z"/>
<path d="M1343 4983 c-1 -25 2 -32 8 -22 11 18 12 46 1 53 -4 3 -9 -11 -9 -31z"/>
<path d="M859 4993 c0 -10 -2 -37 -5 -60 -2 -25 0 -43 6 -43 6 0 10 27 10 60
0 33 -2 60 -5 60 -3 0 -5 -8 -6 -17z"/>
<path d="M1222 4998 c-14 -14 -16 -68 -3 -68 4 0 6 11 3 25 -2 14 1 32 8 40
15 18 9 20 -8 3z"/>
<path d="M1286 4987 c-5 -15 -6 -31 -2 -34 11 -11 18 5 14 34 l-4 28 -8 -28z"/>
<path d="M1057 4992 c-1 -4 0 -25 4 -47 3 -22 7 -30 8 -17 0 13 5 32 11 42 7
13 6 19 -5 24 -8 3 -16 2 -18 -2z"/>
<path d="M1109 4991 c9 -6 11 -18 6 -39 -3 -18 -2 -33 4 -37 7 -4 11 10 11 39
0 37 -3 46 -17 46 -14 0 -15 -2 -4 -9z"/>
<path d="M1005 4950 c0 -22 3 -40 8 -40 4 0 7 11 7 24 0 13 3 31 6 40 4 10 1
16 -7 16 -10 0 -14 -13 -14 -40z"/>
<path d="M5832 4973 c2 -9 10 -19 18 -21 12 -4 13 -3 3 10 -7 8 -10 18 -6 21
3 4 1 7 -6 7 -7 0 -11 -8 -9 -17z"/>
<path d="M910 4935 c0 -27 2 -46 4 -44 8 8 10 78 3 85 -4 4 -7 -14 -7 -41z"/>
<path d="M964 4955 c-10 -16 -13 -31 -8 -42 6 -15 9 -12 12 12 2 17 8 36 14
43 6 6 8 12 4 12 -3 0 -13 -11 -22 -25z"/>
<path d="M5509 4976 c-7 -7 2 -116 9 -116 4 0 6 25 5 56 -1 54 -5 69 -14 60z"/>
<path d="M5788 4946 c-7 -39 -4 -55 8 -44 3 3 4 23 2 44 l-3 39 -7 -39z"/>
<path d="M5728 4935 c2 -19 7 -35 11 -35 4 0 8 16 9 35 1 22 -3 35 -11 35 -9
0 -12 -11 -9 -35z"/>
<path d="M737 4928 c8 -43 13 -48 13 -15 0 15 0 30 1 34 0 4 -4 9 -10 11 -7 2
-9 -8 -4 -30z"/>
<path d="M5616 4938 c-9 -12 -16 -26 -16 -30 0 -11 30 -38 43 -38 6 0 4 6 -5
13 -22 17 -18 61 6 65 14 3 17 0 13 -13 -4 -9 -3 -14 3 -10 6 3 10 13 10 21 0
22 -37 17 -54 -8z"/>
<path d="M261 4888 c-1 -34 1 -60 3 -57 10 9 17 119 8 119 -5 0 -10 -28 -11
-62z"/>
<path d="M673 4943 c14 -4 16 -11 11 -39 -3 -19 -2 -34 2 -34 5 0 10 18 12 40
2 36 0 40 -20 39 -18 -1 -19 -2 -5 -6z"/>
<path d="M804 4936 c-3 -8 -4 -23 -2 -33 3 -11 6 -6 9 15 6 34 2 42 -7 18z"/>
<path d="M585 4928 c-10 -36 -11 -68 -1 -68 6 0 12 18 13 40 2 39 -4 53 -12
28z"/>
<path d="M1165 4930 c-3 -5 -1 -10 4 -10 6 0 11 5 11 10 0 6 -2 10 -4 10 -3 0
-8 -4 -11 -10z"/>
<path d="M5553 4933 c20 -5 22 -25 5 -56 -10 -20 -10 -21 5 -8 10 7 17 26 17
42 0 24 -4 29 -22 28 -17 -1 -19 -2 -5 -6z"/>
<path d="M481 4913 c7 -10 15 -20 16 -22 2 -2 3 5 3 17 0 14 -6 22 -16 22 -14
0 -15 -3 -3 -17z"/>
<path d="M528 4890 c2 -22 7 -40 11 -40 3 0 6 18 6 40 0 22 -5 40 -10 40 -6 0
-9 -17 -7 -40z"/>
<path d="M628 4905 c-8 -18 -8 -29 -1 -36 7 -7 12 0 15 25 5 43 2 45 -14 11z"/>
<path d="M199 4912 c-1 -25 0 -92 2 -99 1 -5 5 15 9 42 4 28 3 54 -1 60 -6 5
-9 4 -10 -3z"/>
<path d="M404 4900 c0 -13 4 -16 10 -10 7 7 7 13 0 20 -6 6 -10 3 -10 -10z"/>
<path d="M5430 4895 c0 -14 2 -25 4 -25 2 0 6 11 8 25 3 14 1 25 -3 25 -5 0
-9 -11 -9 -25z"/>
<path d="M308 4870 c2 -22 7 -40 11 -40 10 0 7 73 -4 77 -7 2 -9 -13 -7 -37z"/>
<path d="M5330 4871 c0 -23 5 -41 10 -41 6 0 10 15 10 34 0 19 -4 38 -10 41
-6 4 -10 -10 -10 -34z"/>
<path d="M5377 4904 c7 -3 17 -21 24 -41 8 -24 14 -31 19 -23 5 8 2 19 -6 27
-8 8 -14 21 -14 29 0 8 -8 14 -17 13 -10 0 -13 -3 -6 -5z"/>
<path d="M357 4884 c-11 -30 1 -54 27 -53 16 1 17 2 4 6 -10 3 -18 16 -20 36
-3 28 -4 29 -11 11z"/>
<path d="M5223 4876 c4 -10 7 -29 7 -42 0 -13 4 -24 8 -24 12 0 2 69 -11 77
-7 4 -8 0 -4 -11z"/>
<path d="M5282 4878 c-7 -7 -12 -22 -12 -35 0 -17 6 -23 23 -23 16 0 18 3 8 9
-8 5 -12 19 -9 35 6 30 6 30 -10 14z"/>
<path d="M452 4860 c0 -14 2 -19 5 -12 2 6 2 18 0 25 -3 6 -5 1 -5 -13z"/>
<path d="M5168 4839 c5 -45 18 -41 24 6 2 20 -2 31 -12 33 -13 2 -15 -6 -12
-39z"/>
<path d="M5120 4829 c0 -22 4 -38 8 -35 12 7 14 76 2 76 -5 0 -10 -18 -10 -41z"/>
<path d="M482 4836 c7 -8 15 -12 17 -11 5 6 -10 25 -20 25 -5 0 -4 -6 3 -14z"/>
<path d="M5760 4751 c0 -34 4 -51 13 -51 8 0 12 15 11 47 -2 66 -24 69 -24 4z"/>
<path d="M5603 4746 c4 -10 7 -29 7 -42 0 -13 4 -24 9 -24 14 0 7 73 -8 78
-10 3 -12 0 -8 -12z"/>
<path d="M5660 4745 c-6 -8 -9 -23 -5 -34 14 -46 75 -31 75 19 0 17 -4 30 -9
30 -4 0 -6 -10 -4 -23 5 -26 -19 -53 -38 -42 -6 4 -9 20 -7 36 5 33 5 34 -12
14z"/>
<path d="M5552 4709 c-1 -21 3 -39 8 -39 6 0 10 13 10 28 0 15 4 32 10 38 6 6
4 10 -9 11 -14 1 -18 -6 -19 -38z"/>
<path d="M5470 4731 c0 -5 5 -13 10 -16 6 -3 10 -2 10 4 0 5 -4 13 -10 16 -5
3 -10 2 -10 -4z"/>
<path d="M5416 4722 c-4 -7 -3 -12 3 -12 5 0 15 -16 21 -36 9 -28 15 -33 24
-24 8 9 8 14 -1 17 -7 3 -13 10 -13 17 0 21 -26 50 -34 38z"/>
<path d="M5365 4680 c0 -26 4 -40 13 -40 9 0 12 12 10 37 -4 50 -23 53 -23 3z"/>
<path d="M5268 4660 c2 -22 7 -40 11 -40 4 0 5 18 3 40 -2 22 -7 40 -11 40 -4
0 -5 -18 -3 -40z"/>
<path d="M5320 4685 c-13 -16 -10 -47 5 -52 6 -2 10 13 10 32 0 40 1 39 -15
20z"/>
<path d="M5208 4650 c5 -47 18 -45 24 5 3 27 0 35 -12 35 -12 0 -15 -9 -12
-40z"/>
<path d="M5158 4639 c5 -47 6 -47 20 4 9 32 8 37 -7 37 -13 0 -16 -8 -13 -41z"/>
<path d="M5560 4571 c0 -11 -6 -22 -12 -24 -10 -4 -10 -6 0 -6 18 -1 15 -60
-4 -68 -26 -10 -39 12 -26 44 11 26 11 27 -3 9 -17 -23 -20 -52 -5 -61 5 -3
24 -3 42 0 l33 6 -3 60 c-2 32 -8 59 -13 59 -5 0 -9 -9 -9 -19z"/>
<path d="M5828 4549 c5 -47 7 -47 15 4 4 25 2 37 -6 37 -9 0 -11 -13 -9 -41z"/>
<path d="M5732 4568 c-7 -7 -12 -22 -12 -34 0 -23 26 -51 37 -40 3 3 1 6 -5 6
-17 0 -24 37 -12 60 12 23 10 26 -8 8z"/>
<path d="M5775 4539 c0 -34 2 -37 13 -22 6 9 12 22 12 29 0 6 -6 16 -12 22
-10 8 -13 1 -13 -29z"/>
<path d="M5617 4553 c-14 -13 -7 -32 14 -38 12 -4 18 -12 15 -21 -6 -17 10
-19 20 -2 4 6 -4 19 -20 30 -14 11 -24 24 -20 29 6 10 0 12 -9 2z"/>
<path d="M5453 4532 c-19 -3 -21 -8 -16 -40 7 -48 13 -54 13 -14 0 19 7 35 17
41 22 12 15 18 -14 13z"/>
<path d="M5342 4508 c-11 -11 -18 -68 -8 -68 2 0 13 -3 23 -7 17 -7 17 -6 1
11 -22 22 -23 40 -2 60 8 9 12 16 7 16 -5 0 -14 -5 -21 -12z"/>
<path d="M5290 4500 c0 -5 5 -10 11 -10 5 0 7 5 4 10 -3 6 -8 10 -11 10 -2 0
-4 -4 -4 -10z"/>
<path d="M5388 4474 c-4 -32 -3 -34 9 -18 15 21 17 40 4 48 -5 3 -11 -10 -13
-30z"/>
<path d="M5246 4484 c-4 -10 -3 -20 2 -23 5 -3 11 -14 15 -24 4 -11 12 -15 19
-11 9 6 9 9 0 12 -7 2 -12 11 -12 20 0 10 -4 23 -9 30 -6 11 -10 10 -15 -4z"/>
<path d="M5204 4455 c12 -38 21 -44 30 -19 3 8 2 13 -3 10 -5 -3 -12 5 -15 19
-4 14 -10 25 -15 25 -4 0 -3 -16 3 -35z"/>
<path d="M5608 4483 c7 -3 16 -2 19 1 4 3 -2 6 -13 5 -11 0 -14 -3 -6 -6z"/>
<path d="M5291 4464 c0 -11 3 -14 6 -6 3 7 2 16 -1 19 -3 4 -6 -2 -5 -13z"/>
<path d="M5754 4343 c1 -20 6 -38 11 -40 7 -2 9 12 7 37 -5 50 -19 53 -18 3z"/>
<path d="M5800 4371 c0 -6 9 -15 21 -21 12 -7 18 -17 15 -27 -4 -9 -1 -13 6
-11 22 8 18 24 -12 46 -16 13 -30 18 -30 13z"/>
<path d="M5362 4300 c0 -58 1 -61 8 -26 4 22 4 51 0 65 -6 19 -8 7 -8 -39z"/>
<path d="M5585 4351 c-3 -6 -13 -7 -22 -4 -13 5 -15 2 -10 -11 4 -10 7 -30 8
-44 1 -28 3 -24 13 20 3 14 14 28 24 30 12 2 13 6 5 11 -6 4 -14 3 -18 -2z"/>
<path d="M5630 4340 c-17 -32 -3 -60 28 -59 24 2 24 2 4 6 -19 4 -22 10 -19
39 5 39 2 42 -13 14z"/>
<path d="M5676 4345 c-3 -8 -1 -15 4 -15 6 0 10 7 10 15 0 8 -2 15 -4 15 -2 0
-6 -7 -10 -15z"/>
<path d="M5270 4280 c0 -41 4 -60 13 -60 8 0 11 17 9 60 -5 78 -22 78 -22 0z"/>
<path d="M5315 4330 c3 -5 8 -10 11 -10 2 0 4 5 4 10 0 6 -5 10 -11 10 -5 0
-7 -4 -4 -10z"/>
<path d="M5502 4326 c7 -8 16 -12 21 -9 11 7 -2 23 -19 23 -12 0 -12 -2 -2
-14z"/>
<path d="M5394 4319 c-4 -7 -3 -9 4 -5 7 4 12 -7 14 -31 2 -20 8 -38 14 -40 7
-2 8 11 5 38 -6 43 -23 60 -37 38z"/>
<path d="M5464 4316 c-16 -41 20 -86 47 -59 6 6 1 9 -12 9 -27 -1 -37 21 -12
27 17 4 17 5 -1 6 -12 1 -16 6 -12 16 3 8 3 15 0 15 -2 0 -7 -6 -10 -14z"/>
<path d="M5806 4177 c-4 -9 -8 -24 -11 -33 -6 -20 -25 -8 -25 17 0 10 -5 19
-11 19 -6 0 -8 -7 -5 -16 3 -9 9 -27 12 -40 7 -29 20 -31 29 -4 7 23 25 27 25
5 0 -8 7 -15 15 -15 16 0 29 39 22 67 -3 10 -5 4 -6 -14 -1 -34 -21 -48 -21
-15 0 9 -4 24 -10 32 -8 12 -10 12 -14 -3z"/>
<path d="M5663 4162 c-19 -3 -23 -10 -23 -43 0 -21 5 -39 10 -39 6 0 10 13 10
30 0 17 7 33 17 39 22 12 15 18 -14 13z"/>
<path d="M5489 4149 c-3 -36 4 -85 12 -94 6 -6 7 3 3 23 -4 19 -2 38 5 46 9
10 8 16 -4 26 -12 10 -15 10 -16 -1z"/>
<path d="M5281 4088 c-1 -38 3 -68 7 -68 5 0 7 26 5 58 -6 83 -11 87 -12 10z"/>
<path d="M5427 4143 c-10 -10 -8 -91 2 -97 5 -3 11 15 13 40 3 46 -3 70 -15
57z"/>
<path d="M5557 4132 c-20 -22 -22 -43 -5 -60 16 -16 33 -16 21 1 -6 6 -10 21
-10 32 0 11 4 26 10 33 15 19 2 14 -16 -6z"/>
<path d="M5596 4139 c3 -6 0 -16 -7 -21 -12 -8 -11 -9 1 -5 18 4 27 37 10 37
-6 0 -8 -5 -4 -11z"/>
<path d="M5333 4094 c-20 -31 -8 -58 28 -61 24 -3 24 -3 2 7 -23 9 -28 44 -10
68 5 6 7 12 3 12 -3 0 -13 -12 -23 -26z"/>
<path d="M5374 4101 c0 -11 4 -17 8 -15 4 3 8 12 8 20 0 8 -4 14 -8 14 -4 0
-8 -9 -8 -19z"/>
<path d="M5819 4016 c-2 -2 -2 -29 -1 -60 5 -74 29 -78 25 -4 -1 32 3 56 10
60 8 5 4 8 -9 8 -11 0 -23 -2 -25 -4z"/>
<path d="M5706 3989 c-41 -32 -35 -89 12 -103 23 -8 23 -8 -2 17 -41 41 -11
104 42 90 17 -4 23 -2 18 6 -11 17 -41 13 -70 -10z"/>
<path d="M5565 3920 c0 -43 4 -60 13 -60 10 0 13 14 10 53 -3 48 -1 52 20 55
16 3 22 -2 22 -16 0 -11 -5 -22 -12 -24 -13 -5 18 -58 33 -58 5 0 2 11 -7 25
-13 20 -14 28 -4 40 21 25 4 45 -37 45 l-38 0 0 -60z"/>
<path d="M5470 3945 c0 -8 4 -15 9 -15 8 0 25 -56 22 -72 0 -5 6 -8 14 -8 19
0 19 2 -6 61 -21 48 -39 64 -39 34z"/>
<path d="M5340 3943 c-14 -3 -29 -9 -35 -15 -7 -6 -1 -7 18 -3 27 7 27 7 27
-44 0 -34 4 -51 13 -51 8 0 11 16 8 56 -3 54 -2 57 18 51 12 -3 21 -1 21 4 0
9 -25 10 -70 2z"/>
<path d="M5755 3915 c0 -14 5 -25 11 -25 7 0 14 11 16 25 4 18 1 25 -11 25
-10 0 -16 -9 -16 -25z"/>
<path d="M5447 3893 c-2 -10 -8 -26 -12 -35 -4 -10 -3 -18 3 -18 5 0 12 14 16
32 7 34 2 50 -7 21z"/>
<path d="M5747 3790 c4 -13 0 -20 -9 -20 -33 0 -65 -68 -39 -84 4 -3 6 6 3 19
-5 27 12 55 34 55 20 0 18 -49 -3 -73 -13 -14 -14 -18 -3 -11 8 4 23 7 34 5
10 -1 15 2 12 7 -3 6 -7 35 -7 66 -1 38 -6 56 -14 56 -8 0 -11 -8 -8 -20z"/>
<path d="M5377 3738 c-28 -21 -32 -70 -8 -92 20 -18 20 -18 9 12 -18 47 3 86
42 80 17 -3 30 -1 30 4 0 13 -54 9 -73 -4z"/>
<path d="M5590 3725 c-11 -28 2 -65 22 -65 7 0 6 5 -2 15 -17 21 -4 67 18 63
19 -4 28 -42 15 -62 -4 -6 0 -4 9 7 23 25 9 61 -26 65 -20 3 -28 -2 -36 -23z"/>
<path d="M5818 3743 c6 -2 18 -2 25 0 6 3 1 5 -13 5 -14 0 -19 -2 -12 -5z"/>
<path d="M5494 3715 c-28 -43 4 -87 47 -65 26 14 29 67 6 82 -21 13 -36 9 -53
-17z m54 -16 c3 -27 -20 -55 -38 -44 -11 7 -14 58 -3 69 14 14 38 0 41 -25z"/>
<path d="M5439 3688 c-6 -23 -6 -57 0 -53 12 7 20 55 10 55 -5 0 -9 -1 -10 -2z"/>
<path d="M5815 2615 c-117 -207 -152 -488 -90 -730 21 -81 80 -231 110 -280
22 -35 25 -37 25 -16 0 13 -13 51 -29 85 -39 80 -83 214 -76 226 3 6 18 10 33
10 39 0 72 11 72 22 0 7 -21 8 -59 4 -69 -8 -67 -13 -77 134 -12 175 28 371
102 509 19 35 34 73 32 85 -2 16 -13 4 -43 -49z"/>
<path d="M0 2385 c0 -8 9 -15 19 -15 21 0 24 -18 36 -242 5 -94 4 -97 -17
-101 -23 -4 -23 -4 -1 -6 23 -1 27 -27 38 -271 3 -58 9 -172 15 -255 14 -223
18 -202 -40 -210 -34 -5 -50 -12 -50 -21 0 -12 10 -13 49 -8 l49 6 6 -83 c3
-46 7 -127 9 -179 l2 -95 -57 -9 c-38 -5 -58 -13 -58 -22 0 -11 13 -12 59 -7
l60 6 5 -34 c3 -19 10 -133 16 -254 6 -121 15 -276 20 -344 5 -69 7 -128 5
-132 -3 -3 -41 -10 -85 -13 -67 -6 -80 -10 -80 -25 0 -16 6 -17 96 -5 52 7 98
14 100 17 3 3 1 83 -5 179 -11 175 -38 634 -66 1118 -8 146 -22 373 -29 505
-8 132 -18 302 -21 378 l-7 137 -34 0 c-24 0 -34 -5 -34 -15z"/>
<path d="M2 730 c0 -19 2 -27 5 -17 2 9 2 25 0 35 -3 9 -5 1 -5 -18z"/>
<path d="M0 615 c0 -28 4 -44 10 -40 13 8 13 72 0 80 -6 4 -10 -12 -10 -40z"/>
<path d="M0 240 c0 -51 3 -90 6 -87 7 7 5 169 -2 176 -2 2 -4 -38 -4 -89z"/>
<path d="M5770 244 c-83 -16 -240 -30 -430 -37 -133 -5 -202 -13 -235 -27 -24
-10 -163 -29 -264 -36 -109 -7 -125 -23 -23 -24 106 0 269 19 302 35 35 17 89
23 389 40 146 8 269 19 275 25 5 5 25 10 43 10 23 0 33 5 33 15 0 8 -3 15 -7
14 -5 0 -42 -7 -83 -15z"/>
<path d="M5851 167 c0 -10 -14 -32 -31 -48 l-29 -30 -40 21 c-49 25 -64 9 -17
-19 18 -12 37 -21 41 -21 10 0 44 -43 45 -57 0 -7 7 -13 16 -13 13 0 15 7 10
36 -4 19 -2 51 4 69 6 19 9 45 7 57 -3 17 -5 18 -6 5z"/>
<path d="M4460 115 c-30 -7 -86 -13 -125 -13 -46 0 -103 -9 -165 -27 -91 -26
-120 -32 -201 -39 -20 -2 -45 -8 -55 -13 -10 -5 -50 -11 -89 -12 -128 -5 -80
-11 82 -11 131 0 163 3 173 15 7 8 22 15 35 15 12 0 48 9 81 21 33 12 94 23
139 25 44 3 104 9 134 14 30 6 76 10 102 10 61 0 110 10 103 21 -8 13 -151 9
-214 -6z"/>
<path d="M5533 100 c-13 -5 -23 -18 -23 -29 0 -34 22 -71 42 -71 17 0 17 2 4
29 -12 23 -13 31 -3 38 24 19 45 21 64 8 17 -13 17 -15 -11 -44 -32 -34 -18
-43 22 -15 24 17 29 56 10 72 -19 16 -80 23 -105 12z"/>
<path d="M5387 72 c-35 -20 -47 -32 -45 -47 3 -17 12 -21 57 -23 30 -2 59 2
64 7 19 19 -3 25 -39 12 -20 -7 -39 -10 -42 -6 -9 8 48 55 66 55 15 0 12 22
-4 27 -5 1 -30 -10 -57 -25z"/>
<path d="M5125 61 c-3 -6 -24 -16 -45 -22 -42 -13 -55 -39 -19 -39 27 0 100
41 96 54 -5 14 -24 19 -32 7z"/>
<path d="M5228 42 c-51 -23 -57 -42 -13 -42 19 0 35 4 35 9 0 5 16 15 35 21
37 12 39 31 2 29 -12 0 -39 -8 -59 -17z"/>
<path d="M3680 25 c-6 -8 -28 -16 -48 -18 -20 -2 -4 -4 36 -5 39 -1 72 0 72 2
0 2 -11 11 -24 19 -21 14 -26 14 -36 2z"/>
<path d="M4947 24 c-13 -13 -7 -24 14 -24 11 0 19 5 17 12 -5 14 -22 21 -31
12z"/>
<path d="M3478 3 c6 -2 18 -2 25 0 6 3 1 5 -13 5 -14 0 -19 -2 -12 -5z"/>
<path d="M4733 3 c9 -2 25 -2 35 0 9 3 1 5 -18 5 -19 0 -27 -2 -17 -5z"/>
</g>
</svg>
