<?xml version="1.0" encoding="UTF-8"?> <svg xmlns="http://www.w3.org/2000/svg" width="430" height="300" viewBox="0 0 430 300" fill="none"><g clip-path="url(#clip0_10840_75407)"><path d="M51.5608 165.075C80.0763 165.075 103.122 142.03 103.122 113.515C103.122 84.999 80.0763 61.8164 51.5608 61.8164C23.0452 61.8164 0 85.0082 0 113.524C0 142.039 23.0452 165.075 51.5608 165.075Z" fill="url(#paint0_linear_10840_75407)" fill-opacity="0.4"></path><path d="M46.1529 137.151C44.5035 137.151 42.8541 136.509 41.6629 135.318L25.9024 119.558C23.4284 117.084 23.4284 112.96 25.9024 110.486C28.3764 108.012 32.4998 108.012 34.9739 110.486L46.1529 121.665L68.1443 99.5821C70.6183 97.1081 74.7417 97.1081 77.2158 99.5821C79.6898 102.056 79.6898 106.18 77.2158 108.654L50.6428 135.227C49.3599 136.509 47.8022 137.151 46.1529 137.151Z" fill="white"></path><path d="M319.312 48.7319L425.012 154.33C435.675 164.998 428.103 183.088 413.113 183.088H307.568C298.296 183.088 290.724 175.512 290.724 166.235V60.6368C290.569 45.6397 308.804 38.2184 319.312 48.7319Z" fill="url(#paint1_linear_10840_75407)" fill-opacity="0.6"></path><path d="M271.349 75.8789H196.741C186.403 75.8789 178.016 84.2517 178.016 94.5716V244.113C178.016 254.433 186.403 262.806 196.741 262.806H321.477C331.815 262.806 340.203 254.433 340.203 244.113V144.614C340.203 139.648 338.252 134.878 334.741 131.373L284.612 81.331C281.101 77.8261 276.323 75.8789 271.349 75.8789Z" fill="url(#paint2_linear_10840_75407)" fill-opacity="0.8"></path><path d="M188.801 43.2381C185.037 39.3744 179.871 37.1953 174.477 37.1953H88.9727C77.927 37.1953 68.9727 46.1496 68.9727 57.1953V222.449C68.9727 233.494 77.927 242.449 88.9727 242.449H228.569C239.615 242.449 248.569 233.494 248.569 222.449V112.712C248.569 107.498 246.533 102.49 242.894 98.7551L188.801 43.2381Z" fill="url(#paint3_linear_10840_75407)"></path><path d="M90.3164 106.875C90.3164 104.114 92.555 101.875 95.3164 101.875H107.65C110.412 101.875 112.65 104.114 112.65 106.875V119.3C112.65 122.061 110.412 124.3 107.65 124.3H95.3164C92.555 124.3 90.3164 122.061 90.3164 119.3V106.875Z" fill="#F2EBFF" fill-opacity="0.8"></path><path d="M90.3164 151.445C90.3164 148.684 92.555 146.445 95.3164 146.445H107.65C110.412 146.445 112.65 148.684 112.65 151.445V163.87C112.65 166.632 110.412 168.87 107.65 168.87H95.3164C92.555 168.87 90.3164 166.632 90.3164 163.87V151.445Z" fill="#ABA5E9"></path><path d="M90.3164 196.016C90.3164 193.254 92.555 191.016 95.3164 191.016H107.65C110.412 191.016 112.65 193.254 112.65 196.016V208.441C112.65 211.202 110.412 213.441 107.65 213.441H95.3164C92.555 213.441 90.3164 211.202 90.3164 208.441V196.016Z" fill="#ABA5E9"></path><path d="M289.042 168.243H160.837C154.091 168.243 148.629 162.749 148.629 155.963C148.629 149.178 154.091 143.684 160.837 143.684H289.042C295.788 143.684 301.25 149.178 301.25 155.963C301.25 162.749 295.788 168.243 289.042 168.243Z" fill="url(#paint4_linear_10840_75407)" fill-opacity="0.8"></path></g><defs><linearGradient id="paint0_linear_10840_75407" x1="56.2481" y1="44.9297" x2="79.8269" y2="126.06" gradientUnits="userSpaceOnUse"><stop stop-color="#7959CA" stop-opacity="0.8"></stop><stop offset="1" stop-color="#8A8AE2"></stop></linearGradient><linearGradient id="paint1_linear_10840_75407" x1="94.822" y1="224.765" x2="308.248" y2="11.0989" gradientUnits="userSpaceOnUse"><stop stop-color="#F1F0FF" stop-opacity="0.2"></stop><stop offset="1" stop-color="#C0BDF7" stop-opacity="0.8"></stop></linearGradient><linearGradient id="paint2_linear_10840_75407" x1="201.113" y1="131.301" x2="403.537" y2="154.736" gradientUnits="userSpaceOnUse"><stop stop-color="#AC96E4" stop-opacity="0.8"></stop><stop offset="1" stop-color="#ECEBFF"></stop></linearGradient><linearGradient id="paint3_linear_10840_75407" x1="150.326" y1="242.449" x2="134.924" y2="15.5944" gradientUnits="userSpaceOnUse"><stop stop-color="#493474" stop-opacity="0.8"></stop><stop offset="1" stop-color="#A7A7F1"></stop></linearGradient><linearGradient id="paint4_linear_10840_75407" x1="278.626" y1="155.963" x2="262.692" y2="193.689" gradientUnits="userSpaceOnUse"><stop stop-color="#E8E7FF"></stop><stop offset="1" stop-color="#B1AFF2"></stop></linearGradient><clipPath id="clip0_10840_75407"><rect width="430" height="300" fill="white"></rect></clipPath></defs></svg> 