<?xml version="1.0" encoding="UTF-8"?> <svg xmlns="http://www.w3.org/2000/svg" width="618" height="406" viewBox="0 0 618 406" fill="none"><mask id="mask0_7334_86892" style="mask-type:alpha" maskUnits="userSpaceOnUse" x="-1104" y="0" width="2452" height="406"><rect x="-1103.54" width="2451.08" height="406" fill="url(#paint0_linear_7334_86892)"></rect></mask><g mask="url(#mask0_7334_86892)"><path d="M508.859 260.026C568.921 260.026 617.609 211.337 617.609 151.274C617.609 91.2132 568.921 42.5234 508.859 42.5234C448.798 42.5234 400.109 91.2132 400.109 151.274C400.109 211.337 448.798 260.026 508.859 260.026Z" fill="url(#paint1_linear_7334_86892)" fill-opacity="0.8"></path><path d="M44.1875 317.77C44.1875 268.628 84.0187 228.796 133.16 228.796C134.445 228.796 135.707 228.841 136.969 228.886C150.224 185.56 190.528 154.023 238.204 154.023C293.093 154.023 338.199 195.794 343.542 249.264C345.931 249.039 348.366 248.926 350.8 248.926C394.035 248.926 429.088 283.979 429.088 327.215C429.088 369.707 395.23 404.264 353.032 405.459C350.8 405.661 131.266 406.496 118.733 405.571C110.37 404.872 102.525 402.37 95.6052 398.448C65.2415 384.269 44.1875 353.476 44.1875 317.77Z" fill="url(#paint2_linear_7334_86892)"></path><path d="M483.608 284.751L408.584 122.034C407.605 120.076 406.352 117.739 405.355 115.34H303.547C302.532 117.449 301.341 120.005 300.327 122.034L225.481 285.116C222.438 292.174 227.671 300.085 235.339 300.085H473.994C481.783 300.085 486.894 291.931 483.608 284.751Z" fill="url(#paint3_linear_7334_86892)" fill-opacity="0.8"></path><path d="M394.401 320.653C405.719 320.532 414.847 311.404 414.725 300.085L413.873 163.413C413.752 120.087 389.655 61.5473 354.118 41.9531C318.947 61.9124 295.337 120.695 295.58 164.143L296.432 300.816C296.554 312.134 305.681 321.262 316.999 321.14L394.401 320.653Z" fill="url(#paint4_linear_7334_86892)"></path><path d="M405.721 115.584C395.863 84.4275 377.486 54.8537 354.12 41.9531C331.24 54.9754 313.228 84.5492 303.492 115.584H405.721Z" fill="url(#paint5_linear_7334_86892)"></path></g><defs><linearGradient id="paint0_linear_7334_86892" x1="122.001" y1="203" x2="123.731" y2="389.31" gradientUnits="userSpaceOnUse"><stop offset="0.40916" stop-color="white"></stop><stop offset="1" stop-color="white" stop-opacity="0"></stop></linearGradient><linearGradient id="paint1_linear_7334_86892" x1="-194.315" y1="482.913" x2="-230.65" y2="406.807" gradientUnits="userSpaceOnUse"><stop stop-color="#BCA8F8" stop-opacity="0.4"></stop><stop offset="1" stop-color="#28AFEA" stop-opacity="0.39"></stop></linearGradient><linearGradient id="paint2_linear_7334_86892" x1="429.088" y1="137.424" x2="108.173" y2="274.153" gradientUnits="userSpaceOnUse"><stop stop-color="#AA87E7" stop-opacity="0.81"></stop><stop offset="1" stop-color="#85C9F5" stop-opacity="0.4"></stop></linearGradient><linearGradient id="paint3_linear_7334_86892" x1="376.56" y1="176.746" x2="396.671" y2="390.089" gradientUnits="userSpaceOnUse"><stop stop-color="#AF94DE"></stop><stop offset="1" stop-color="#66B7ED"></stop></linearGradient><linearGradient id="paint4_linear_7334_86892" x1="355.152" y1="302.224" x2="505.066" y2="168.465" gradientUnits="userSpaceOnUse"><stop stop-color="#391F6E" stop-opacity="0.8"></stop><stop offset="1" stop-color="#81CAFB"></stop></linearGradient><linearGradient id="paint5_linear_7334_86892" x1="319.215" y1="96.9512" x2="388.567" y2="65.6575" gradientUnits="userSpaceOnUse"><stop stop-color="#391F6E" stop-opacity="0.8"></stop><stop offset="1" stop-color="#AB8AD3"></stop></linearGradient></defs></svg> 