<?xml version="1.0" encoding="UTF-8"?> <svg xmlns="http://www.w3.org/2000/svg" width="734" height="734" viewBox="0 0 734 734" fill="none"><g clip-path="url(#clip0_6911_84996)"><path d="M196.275 496.882C221.826 496.882 244.653 437.214 236.5 413C231.707 398.719 228.808 383.65 228.818 368.579C228.83 331.804 243.378 296.537 269.267 270.529C295.155 244.52 330.382 230.025 367 230C385.139 229.991 402.985 233.445 419.744 240.412C436.504 247.38 451.731 257.597 464.556 270.479C477.381 283.362 487.552 298.657 494.487 315.489C501.422 332.322 504.985 350.362 504.973 368.579C504.993 384.047 501.548 401.386 496.5 416C488.161 440.144 510.943 496.999 536.377 496.999H694.977C699.708 497.049 704.334 495.591 708.187 492.832C712.039 490.073 714.505 485.509 716 481C727.696 444.461 734.045 406.959 734 368.579C734 320.159 724.457 270.732 706 226C687.543 181.268 660.535 142.109 626.434 107.88C592.333 73.6517 551.85 46.5067 507.3 27.9963C462.749 9.48577 415.003 -0.0275213 366.791 5.9801e-05C318.605 -0.00301472 270.89 9.53003 226.374 28.0544C181.858 46.5787 141.413 73.7312 107.35 107.96C73.287 142.189 46.4196 181.282 28 226C9.58042 270.718 -0.0304434 320.186 7.35589e-05 368.579C-0.0122204 406.951 6.32113 444.465 18 481C19.4953 485.515 21.9861 490.062 25.8433 492.825C29.7005 495.588 34.332 497.049 39.0695 496.999L196.275 496.882Z" fill="url(#paint0_linear_6911_84996)" fill-opacity="0.4"></path></g><defs><linearGradient id="paint0_linear_6911_84996" x1="335.805" y1="74.8356" x2="372.607" y2="419.517" gradientUnits="userSpaceOnUse"><stop stop-color="#BCA8F8"></stop><stop offset="1" stop-color="#28AFEA" stop-opacity="0.6"></stop></linearGradient><clipPath id="clip0_6911_84996"><rect width="734" height="734" fill="white"></rect></clipPath></defs></svg> 