<?xml version="1.0" encoding="UTF-8"?> <svg xmlns="http://www.w3.org/2000/svg" width="636" height="636" viewBox="0 0 636 636" fill="none"><path d="M603.293 179.177C616.061 207.19 624.39 237.018 627.984 267.593C628.17 269.084 628.044 270.597 627.614 272.037C627.185 273.476 626.461 274.811 625.488 275.957C624.516 277.102 623.316 278.033 621.965 278.69C620.614 279.347 619.141 279.717 617.64 279.775L488.544 288.941C485.795 289.184 483.057 288.368 480.89 286.66C478.723 284.952 477.29 282.481 476.884 279.752C474.81 266.492 470.989 253.565 465.523 241.307C454.656 217.307 437.647 196.599 416.215 181.276C394.783 165.953 369.687 156.557 343.461 154.038C340.692 153.782 338.115 152.511 336.226 150.47C334.338 148.428 333.271 145.761 333.231 142.98L334.977 13.7656C335.015 12.2755 335.348 10.8076 335.955 9.44634C336.562 8.08507 337.432 6.85721 338.515 5.83315C339.599 4.80909 340.873 4.00909 342.266 3.47903C343.66 2.94898 345.143 2.69925 346.633 2.74436C401.437 5.94977 454.32 24.0829 499.559 55.1811C544.798 86.2793 580.67 129.158 603.293 179.177V179.177Z" fill="url(#paint0_linear_6968_88237)" fill-opacity="0.8"></path><defs><linearGradient id="paint0_linear_6968_88237" x1="513.449" y1="106.758" x2="384.927" y2="246.413" gradientUnits="userSpaceOnUse"><stop stop-color="#AF94DE"></stop><stop offset="1" stop-color="#66B7ED"></stop></linearGradient></defs></svg> 